<svg width="208" height="36" viewBox="0 0 208 36" fill="none" xmlns="http://www.w3.org/2000/svg">
<path d="M9.58025 28H0.610725V1.53086H9.76119C12.3891 1.53086 14.6466 2.06076 16.5336 3.12056C18.4291 4.17175 19.8853 5.6839 20.902 7.65702C21.9187 9.63014 22.4271 11.991 22.4271 14.7396C22.4271 17.4968 21.9144 19.8663 20.8891 21.848C19.8724 23.8297 18.4033 25.3505 16.4819 26.4103C14.5691 27.4701 12.2685 28 9.58025 28ZM5.40567 23.8513H9.34761C11.1915 23.8513 12.7295 23.5152 13.9616 22.8432C15.1937 22.1625 16.12 21.1501 16.7404 19.8059C17.3607 18.4532 17.6709 16.7644 17.6709 14.7396C17.6709 12.7148 17.3607 11.0346 16.7404 9.69907C16.12 8.35494 15.2024 7.35115 13.9875 6.68769C12.7812 6.01563 11.282 5.67959 9.48978 5.67959H5.40567V23.8513ZM26.4122 28V8.14815H31.0908V28H26.4122ZM28.7644 5.33063C28.0234 5.33063 27.3858 5.08507 26.8516 4.59394C26.3174 4.0942 26.0503 3.49537 26.0503 2.79745C26.0503 2.09092 26.3174 1.49209 26.8516 1.00096C27.3858 0.501221 28.0234 0.25135 28.7644 0.25135C29.514 0.25135 30.1516 0.501221 30.6772 1.00096C31.2114 1.49209 31.4785 2.09092 31.4785 2.79745C31.4785 3.49537 31.2114 4.0942 30.6772 4.59394C30.1516 5.08507 29.514 5.33063 28.7644 5.33063ZM44.1715 35.858C42.4913 35.858 41.0481 35.6297 39.8418 35.173C38.6355 34.725 37.6662 34.1218 36.9338 33.3636C36.2014 32.6054 35.6931 31.7653 35.4087 30.8434L39.6221 29.8223C39.8116 30.2101 40.0873 30.5935 40.4492 30.9726C40.8111 31.3603 41.2979 31.6791 41.9097 31.929C42.5301 32.1875 43.3098 32.3167 44.249 32.3167C45.5759 32.3167 46.6745 31.9936 47.5447 31.3474C48.415 30.7098 48.8501 29.6586 48.8501 28.1939V24.4329H48.6174C48.3762 24.9154 48.0229 25.4108 47.5576 25.9192C47.101 26.4275 46.4935 26.854 45.7353 27.1987C44.9857 27.5433 44.0422 27.7157 42.9049 27.7157C41.3798 27.7157 39.9969 27.3581 38.7561 26.6429C37.524 25.9192 36.5418 24.8421 35.8094 23.4118C35.0856 21.9729 34.7237 20.1721 34.7237 18.0095C34.7237 15.8295 35.0856 13.99 35.8094 12.4907C36.5418 10.9829 37.5283 9.84124 38.7691 9.06578C40.0098 8.2817 41.3927 7.88966 42.9178 7.88966C44.081 7.88966 45.0374 8.08783 45.787 8.48418C46.5452 8.87191 47.1484 9.3415 47.5964 9.89294C48.0445 10.4358 48.3848 10.9484 48.6174 11.4309H48.8759V8.14815H53.4899V28.3231C53.4899 30.0205 53.085 31.425 52.275 32.5365C51.4651 33.648 50.3579 34.4794 48.9535 35.0309C47.549 35.5823 45.955 35.858 44.1715 35.858ZM44.2102 24.0451C45.2011 24.0451 46.0455 23.8039 46.7434 23.3214C47.4413 22.8389 47.9712 22.1453 48.3331 21.2405C48.695 20.3358 48.8759 19.2502 48.8759 17.9836C48.8759 16.7342 48.695 15.64 48.3331 14.7008C47.9798 13.7616 47.4542 13.0336 46.7563 12.5166C46.067 11.991 45.2183 11.7282 44.2102 11.7282C43.1677 11.7282 42.2974 11.9996 41.5995 12.5424C40.9016 13.0853 40.376 13.8306 40.0227 14.7784C39.6695 15.7175 39.4928 16.7859 39.4928 17.9836C39.4928 19.1985 39.6695 20.2626 40.0227 21.1759C40.3846 22.0806 40.9145 22.7872 41.6124 23.2955C42.319 23.7953 43.1849 24.0451 44.2102 24.0451ZM57.9209 28V8.14815H62.5996V28H57.9209ZM60.2732 5.33063C59.5322 5.33063 58.8946 5.08507 58.3604 4.59394C57.8261 4.0942 57.559 3.49537 57.559 2.79745C57.559 2.09092 57.8261 1.49209 58.3604 1.00096C58.8946 0.501221 59.5322 0.25135 60.2732 0.25135C61.0228 0.25135 61.6604 0.501221 62.186 1.00096C62.7202 1.49209 62.9873 2.09092 62.9873 2.79745C62.9873 3.49537 62.7202 4.0942 62.186 4.59394C61.6604 5.08507 61.0228 5.33063 60.2732 5.33063ZM76.9597 8.14815V11.767H65.5475V8.14815H76.9597ZM68.365 3.39198H73.0436V22.0289C73.0436 22.6579 73.1384 23.1404 73.328 23.4765C73.5261 23.8039 73.7846 24.0279 74.1034 24.1485C74.4222 24.2692 74.7755 24.3295 75.1632 24.3295C75.4562 24.3295 75.7233 24.3079 75.9645 24.2649C76.2144 24.2218 76.404 24.183 76.5332 24.1485L77.3216 27.8061C77.0717 27.8923 76.7141 27.9871 76.2489 28.0905C75.7922 28.1939 75.2321 28.2542 74.5687 28.2714C73.3969 28.3059 72.3414 28.1292 71.4022 27.7415C70.463 27.3452 69.7177 26.7334 69.1663 25.9062C68.6235 25.0791 68.3564 24.0451 68.365 22.8044V3.39198ZM86.2212 28.4007C84.9632 28.4007 83.8302 28.1766 82.8221 27.7286C81.8226 27.2719 81.0299 26.5999 80.444 25.7124C79.8667 24.8249 79.5781 23.7306 79.5781 22.4296C79.5781 21.3095 79.7848 20.3832 80.1984 19.6508C80.612 18.9185 81.1764 18.3326 81.8915 17.8931C82.6067 17.4537 83.4123 17.122 84.3084 16.898C85.2131 16.6653 86.1479 16.4973 87.113 16.3939C88.2762 16.2733 89.2196 16.1656 89.9434 16.0708C90.6672 15.9674 91.1928 15.8123 91.5202 15.6055C91.8562 15.3901 92.0242 15.0584 92.0242 14.6103V14.5328C92.0242 13.5592 91.7356 12.8052 91.1583 12.271C90.581 11.7368 89.7495 11.4697 88.6639 11.4697C87.5179 11.4697 86.6089 11.7196 85.9369 12.2193C85.2734 12.7191 84.8254 13.3093 84.5927 13.99L80.2243 13.3696C80.5689 12.1633 81.1376 11.1552 81.9303 10.3453C82.723 9.52675 83.6923 8.91499 84.8383 8.51003C85.9842 8.09645 87.2508 7.88966 88.638 7.88966C89.5945 7.88966 90.5465 8.00167 91.4943 8.22569C92.4421 8.44972 93.3081 8.82022 94.0921 9.33719C94.8762 9.84555 95.5052 10.5392 95.9791 11.418C96.4616 12.2969 96.7029 13.3954 96.7029 14.7137V28H92.2052V25.273H92.0501C91.7657 25.8244 91.3651 26.3414 90.8481 26.8239C90.3398 27.2978 89.6978 27.6812 88.9224 27.9742C88.1555 28.2585 87.2551 28.4007 86.2212 28.4007ZM87.4361 24.9628C88.3753 24.9628 89.1895 24.7775 89.8788 24.407C90.5681 24.0279 91.098 23.5282 91.4685 22.9078C91.8476 22.2874 92.0372 21.611 92.0372 20.8787V18.5394C91.8907 18.66 91.6408 18.772 91.2875 18.8754C90.9429 18.9788 90.5552 19.0693 90.1244 19.1468C89.6935 19.2243 89.267 19.2933 88.8448 19.3536C88.4226 19.4139 88.0565 19.4656 87.7463 19.5087C87.0483 19.6035 86.4237 19.7586 85.8722 19.974C85.3208 20.1894 84.8857 20.4909 84.5669 20.8787C84.2481 21.2578 84.0887 21.7489 84.0887 22.352C84.0887 23.2137 84.4032 23.8642 85.0321 24.3036C85.6611 24.7431 86.4624 24.9628 87.4361 24.9628ZM105.722 1.53086V28H101.043V1.53086H105.722ZM133.425 8.80729C133.304 7.67856 132.796 6.7997 131.899 6.17072C131.012 5.54173 129.857 5.22724 128.436 5.22724C127.436 5.22724 126.579 5.37802 125.864 5.67959C125.149 5.98116 124.601 6.39043 124.222 6.90741C123.843 7.42438 123.649 8.0146 123.641 8.67805C123.641 9.22949 123.766 9.70769 124.016 10.1127C124.274 10.5176 124.623 10.8623 125.062 11.1466C125.502 11.4223 125.989 11.655 126.523 11.8445C127.057 12.0341 127.596 12.1935 128.138 12.3227L130.62 12.9431C131.619 13.1757 132.58 13.4902 133.502 13.8866C134.433 14.2829 135.264 14.7827 135.996 15.3858C136.737 15.9889 137.323 16.717 137.754 17.57C138.185 18.423 138.4 19.4225 138.4 20.5685C138.4 22.1194 138.004 23.4851 137.211 24.6655C136.419 25.8373 135.273 26.755 133.773 27.4184C132.283 28.0732 130.478 28.4007 128.358 28.4007C126.299 28.4007 124.511 28.0819 122.995 27.4443C121.487 26.8066 120.306 25.8761 119.453 24.6526C118.609 23.4291 118.152 21.9385 118.083 20.1807H122.801C122.87 21.1027 123.154 21.8695 123.654 22.4813C124.153 23.093 124.804 23.5497 125.605 23.8513C126.415 24.1528 127.32 24.3036 128.319 24.3036C129.362 24.3036 130.275 24.1485 131.059 23.8383C131.852 23.5195 132.472 23.0801 132.92 22.5201C133.369 21.9514 133.597 21.2879 133.605 20.5297C133.597 19.8404 133.394 19.2717 132.998 18.8237C132.602 18.367 132.046 17.9879 131.331 17.6863C130.624 17.3762 129.797 17.1004 128.849 16.8592L125.838 16.0837C123.658 15.5237 121.935 14.675 120.668 13.5376C119.41 12.3917 118.781 10.8709 118.781 8.97531C118.781 7.41577 119.203 6.05009 120.048 4.87828C120.901 3.70647 122.06 2.79745 123.524 2.15123C124.989 1.4964 126.648 1.16898 128.5 1.16898C130.379 1.16898 132.024 1.4964 133.437 2.15123C134.859 2.79745 135.975 3.69785 136.785 4.85243C137.595 5.99839 138.013 7.31668 138.039 8.80729H133.425ZM152.017 8.14815V11.767H140.605V8.14815H152.017ZM143.423 3.39198H148.101V22.0289C148.101 22.6579 148.196 23.1404 148.386 23.4765C148.584 23.8039 148.842 24.0279 149.161 24.1485C149.48 24.2692 149.833 24.3295 150.221 24.3295C150.514 24.3295 150.781 24.3079 151.022 24.2649C151.272 24.2218 151.462 24.183 151.591 24.1485L152.379 27.8061C152.129 27.8923 151.772 27.9871 151.307 28.0905C150.85 28.1939 150.29 28.2542 149.626 28.2714C148.455 28.3059 147.399 28.1292 146.46 27.7415C145.521 27.3452 144.775 26.7334 144.224 25.9062C143.681 25.0791 143.414 24.0451 143.423 22.8044V3.39198ZM164.012 28.3877C162.074 28.3877 160.394 27.9612 158.972 27.1082C157.55 26.2552 156.447 25.0619 155.663 23.5282C154.888 21.9945 154.5 20.2023 154.5 18.1516C154.5 16.101 154.888 14.3045 155.663 12.7622C156.447 11.2198 157.55 10.0222 158.972 9.16917C160.394 8.31617 162.074 7.88966 164.012 7.88966C165.951 7.88966 167.631 8.31617 169.053 9.16917C170.475 10.0222 171.573 11.2198 172.349 12.7622C173.133 14.3045 173.525 16.101 173.525 18.1516C173.525 20.2023 173.133 21.9945 172.349 23.5282C171.573 25.0619 170.475 26.2552 169.053 27.1082C167.631 27.9612 165.951 28.3877 164.012 28.3877ZM164.038 24.6397C165.089 24.6397 165.968 24.351 166.675 23.7737C167.381 23.1878 167.907 22.4037 168.252 21.4215C168.605 20.4392 168.781 19.345 168.781 18.1387C168.781 16.9238 168.605 15.8252 168.252 14.843C167.907 13.8521 167.381 13.0637 166.675 12.4778C165.968 11.8919 165.089 11.599 164.038 11.599C162.961 11.599 162.065 11.8919 161.35 12.4778C160.643 13.0637 160.114 13.8521 159.76 14.843C159.416 15.8252 159.243 16.9238 159.243 18.1387C159.243 19.345 159.416 20.4392 159.76 21.4215C160.114 22.4037 160.643 23.1878 161.35 23.7737C162.065 24.351 162.961 24.6397 164.038 24.6397ZM177.132 28V8.14815H181.668V11.4568H181.875C182.237 10.3108 182.857 9.42766 183.736 8.80729C184.624 8.1783 185.636 7.86381 186.773 7.86381C187.032 7.86381 187.321 7.87674 187.639 7.90258C187.967 7.91982 188.238 7.94997 188.454 7.99305V12.2969C188.255 12.2279 187.941 12.1676 187.51 12.1159C187.088 12.0556 186.679 12.0255 186.282 12.0255C185.429 12.0255 184.662 12.2107 183.982 12.5812C183.31 12.9431 182.78 13.4471 182.392 14.0934C182.004 14.7396 181.81 15.4849 181.81 16.3293V28H177.132ZM199.169 28.3877C197.179 28.3877 195.46 27.9742 194.012 27.147C192.573 26.3112 191.466 25.1308 190.691 23.6057C189.915 22.072 189.527 20.2669 189.527 18.1904C189.527 16.1483 189.915 14.3562 190.691 12.8139C191.475 11.2629 192.569 10.0566 193.973 9.19502C195.378 8.32478 197.028 7.88966 198.923 7.88966C200.147 7.88966 201.302 8.08783 202.387 8.48418C203.481 8.87191 204.447 9.47505 205.282 10.2936C206.127 11.1121 206.79 12.1547 207.273 13.4213C207.755 14.6793 207.996 16.1785 207.996 17.919V19.3536H191.725V16.2H203.512C203.503 15.3039 203.309 14.5069 202.93 13.809C202.551 13.1025 202.021 12.5467 201.34 12.1418C200.668 11.7368 199.884 11.5343 198.988 11.5343C198.032 11.5343 197.192 11.767 196.468 12.2323C195.744 12.6889 195.18 13.2921 194.775 14.0417C194.378 14.7827 194.176 15.5969 194.167 16.4844V19.2373C194.167 20.3918 194.378 21.3827 194.801 22.2099C195.223 23.0284 195.813 23.6574 196.571 24.0968C197.329 24.5276 198.217 24.7431 199.234 24.7431C199.914 24.7431 200.53 24.6483 201.082 24.4587C201.633 24.2605 202.111 23.9719 202.516 23.5928C202.921 23.2137 203.227 22.7441 203.434 22.184L207.803 22.6752C207.527 23.8297 207.001 24.8378 206.226 25.6995C205.459 26.5525 204.477 27.2159 203.279 27.6898C202.081 28.1551 200.711 28.3877 199.169 28.3877Z" fill="#C92071"/>
</svg>
